<mxfile host="65bd71144e">
    <diagram id="_y1wDWIOW0_VSxdC8dC5" name="Page-1">
        <mxGraphModel dx="1592" dy="779" grid="1" gridSize="10" guides="1" tooltips="1" connect="1" arrows="1" fold="1" page="1" pageScale="1" pageWidth="850" pageHeight="1100" math="0" shadow="0">
            <root>
                <mxCell id="0"/>
                <mxCell id="1" parent="0"/>
                <mxCell id="4" style="edgeStyle=none;html=1;" parent="1" source="2" target="3" edge="1">
                    <mxGeometry relative="1" as="geometry"/>
                </mxCell>
                <mxCell id="31" style="edgeStyle=none;html=1;entryX=0.5;entryY=0;entryDx=0;entryDy=0;" edge="1" parent="1" source="2" target="32">
                    <mxGeometry relative="1" as="geometry">
                        <mxPoint x="100" y="190" as="targetPoint"/>
                        <Array as="points">
                            <mxPoint x="70" y="190"/>
                        </Array>
                    </mxGeometry>
                </mxCell>
                <object label="#ASTNode" hedietLinkedDataV1_path="../ast.ts" hedietLinkedDataV1_start_col_x-num="0" hedietLinkedDataV1_start_line_x-num="31" hedietLinkedDataV1_end_col_x-num="0" hedietLinkedDataV1_end_line_x-num="31" id="2">
                    <mxCell style="rounded=1;whiteSpace=wrap;html=1;" parent="1" vertex="1">
                        <mxGeometry x="240" y="160" width="120" height="60" as="geometry"/>
                    </mxCell>
                </object>
                <mxCell id="6" style="edgeStyle=none;html=1;exitX=0.5;exitY=1;exitDx=0;exitDy=0;" parent="1" source="3" target="5" edge="1">
                    <mxGeometry relative="1" as="geometry"/>
                </mxCell>
                <mxCell id="11" style="edgeStyle=none;html=1;entryX=0.5;entryY=0;entryDx=0;entryDy=0;" parent="1" source="3" target="12" edge="1">
                    <mxGeometry relative="1" as="geometry">
                        <mxPoint x="420" y="300" as="targetPoint"/>
                        <Array as="points">
                            <mxPoint x="490" y="310"/>
                        </Array>
                    </mxGeometry>
                </mxCell>
                <object label="#Statement" hedietLinkedDataV1_path="../ast.ts" hedietLinkedDataV1_start_col_x-num="18" hedietLinkedDataV1_start_line_x-num="32" hedietLinkedDataV1_end_col_x-num="18" hedietLinkedDataV1_end_line_x-num="32" id="3">
                    <mxCell style="rounded=1;whiteSpace=wrap;html=1;" parent="1" vertex="1">
                        <mxGeometry x="240" y="280" width="120" height="60" as="geometry"/>
                    </mxCell>
                </object>
                <mxCell id="8" style="edgeStyle=none;html=1;" parent="1" source="5" target="7" edge="1">
                    <mxGeometry relative="1" as="geometry"/>
                </mxCell>
                <object label="#Bolck" hedietLinkedDataV1_path="../ast.ts" hedietLinkedDataV1_start_col_x-num="18" hedietLinkedDataV1_start_line_x-num="32" hedietLinkedDataV1_end_col_x-num="18" hedietLinkedDataV1_end_line_x-num="32" id="5">
                    <mxCell style="rounded=1;whiteSpace=wrap;html=1;" parent="1" vertex="1">
                        <mxGeometry x="240" y="400" width="120" height="60" as="geometry"/>
                    </mxCell>
                </object>
                <object label="#Prog" hedietLinkedDataV1_path="../ast.ts" hedietLinkedDataV1_start_col_x-num="18" hedietLinkedDataV1_start_line_x-num="32" hedietLinkedDataV1_end_col_x-num="18" hedietLinkedDataV1_end_line_x-num="32" id="7">
                    <mxCell style="rounded=1;whiteSpace=wrap;html=1;" parent="1" vertex="1">
                        <mxGeometry x="240" y="520" width="120" height="60" as="geometry"/>
                    </mxCell>
                </object>
                <object label="#ExpressionStatement" hedietLinkedDataV1_path="../ast.ts" hedietLinkedDataV1_start_col_x-num="18" hedietLinkedDataV1_start_line_x-num="32" hedietLinkedDataV1_end_col_x-num="18" hedietLinkedDataV1_end_line_x-num="32" id="12">
                    <mxCell style="rounded=1;whiteSpace=wrap;html=1;" parent="1" vertex="1">
                        <mxGeometry x="430" y="400" width="120" height="60" as="geometry"/>
                    </mxCell>
                </object>
                <mxCell id="16" style="edgeStyle=none;html=1;" edge="1" parent="1" source="13" target="14">
                    <mxGeometry relative="1" as="geometry"/>
                </mxCell>
                <mxCell id="13" value="parseExpressionStatement" style="rounded=0;whiteSpace=wrap;html=1;" vertex="1" parent="1">
                    <mxGeometry x="180" y="1370" width="300" height="60" as="geometry"/>
                </mxCell>
                <mxCell id="17" style="edgeStyle=none;html=1;entryX=0.5;entryY=0;entryDx=0;entryDy=0;" edge="1" parent="1" source="14" target="15">
                    <mxGeometry relative="1" as="geometry"/>
                </mxCell>
                <mxCell id="14" value="parseExpressoin" style="rounded=0;whiteSpace=wrap;html=1;" vertex="1" parent="1">
                    <mxGeometry x="180" y="1500" width="300" height="60" as="geometry"/>
                </mxCell>
                <mxCell id="19" style="edgeStyle=none;html=1;" edge="1" parent="1" source="15" target="18">
                    <mxGeometry relative="1" as="geometry"/>
                </mxCell>
                <mxCell id="15" value="parseAssignment" style="rounded=0;whiteSpace=wrap;html=1;" vertex="1" parent="1">
                    <mxGeometry x="185" y="1600" width="290" height="40" as="geometry"/>
                </mxCell>
                <mxCell id="21" style="edgeStyle=none;html=1;" edge="1" parent="1" source="18" target="20">
                    <mxGeometry relative="1" as="geometry"/>
                </mxCell>
                <mxCell id="18" value="parseBinary" style="rounded=0;whiteSpace=wrap;html=1;" vertex="1" parent="1">
                    <mxGeometry x="185" y="1680" width="300" height="40" as="geometry"/>
                </mxCell>
                <mxCell id="38" style="edgeStyle=none;html=1;entryX=0.506;entryY=0;entryDx=0;entryDy=0;entryPerimeter=0;" edge="1" parent="1" source="20" target="41">
                    <mxGeometry relative="1" as="geometry">
                        <mxPoint x="331.875" y="1840" as="targetPoint"/>
                    </mxGeometry>
                </mxCell>
                <mxCell id="20" value="parseUnary" style="rounded=0;whiteSpace=wrap;html=1;" vertex="1" parent="1">
                    <mxGeometry x="180" y="1760" width="300" height="40" as="geometry"/>
                </mxCell>
                <mxCell id="23" style="edgeStyle=none;html=1;" edge="1" parent="1" source="22" target="13">
                    <mxGeometry relative="1" as="geometry"/>
                </mxCell>
                <mxCell id="22" value="parseBlock" style="rounded=0;whiteSpace=wrap;html=1;" vertex="1" parent="1">
                    <mxGeometry x="180" y="1220" width="300" height="60" as="geometry"/>
                </mxCell>
                <mxCell id="25" style="edgeStyle=none;html=1;" edge="1" parent="1" source="24" target="22">
                    <mxGeometry relative="1" as="geometry"/>
                </mxCell>
                <mxCell id="27" style="edgeStyle=none;html=1;entryX=0.467;entryY=0;entryDx=0;entryDy=0;entryPerimeter=0;" edge="1" parent="1" source="24" target="26">
                    <mxGeometry relative="1" as="geometry">
                        <Array as="points">
                            <mxPoint y="1100"/>
                        </Array>
                    </mxGeometry>
                </mxCell>
                <mxCell id="24" value="functionDecl" style="rounded=0;whiteSpace=wrap;html=1;" vertex="1" parent="1">
                    <mxGeometry x="180" y="1070" width="300" height="60" as="geometry"/>
                </mxCell>
                <mxCell id="26" value="callSignature" style="rounded=0;whiteSpace=wrap;html=1;" vertex="1" parent="1">
                    <mxGeometry x="-140" y="1220" width="300" height="60" as="geometry"/>
                </mxCell>
                <mxCell id="28" value="块{}" style="text;html=1;align=center;verticalAlign=middle;resizable=0;points=[];autosize=1;strokeColor=none;fillColor=none;" vertex="1" parent="1">
                    <mxGeometry x="560" y="1240" width="40" height="20" as="geometry"/>
                </mxCell>
                <mxCell id="29" value="表达式列表" style="text;html=1;align=center;verticalAlign=middle;resizable=0;points=[];autosize=1;strokeColor=none;fillColor=none;" vertex="1" parent="1">
                    <mxGeometry x="530" y="1390" width="80" height="20" as="geometry"/>
                </mxCell>
                <mxCell id="30" value="1. 函数声明表达式&lt;br&gt;2. 标识符，literal, 参数表达式&lt;br&gt;;" style="text;html=1;align=center;verticalAlign=middle;resizable=0;points=[];autosize=1;strokeColor=none;fillColor=none;" vertex="1" parent="1">
                    <mxGeometry x="485" y="1510" width="170" height="50" as="geometry"/>
                </mxCell>
                <mxCell id="34" style="edgeStyle=none;html=1;entryX=0.5;entryY=0;entryDx=0;entryDy=0;" edge="1" parent="1" source="32" target="33">
                    <mxGeometry relative="1" as="geometry"/>
                </mxCell>
                <mxCell id="44" style="edgeStyle=none;html=1;entryX=0.417;entryY=0;entryDx=0;entryDy=0;entryPerimeter=0;" edge="1" parent="1" source="32" target="43">
                    <mxGeometry relative="1" as="geometry">
                        <Array as="points">
                            <mxPoint x="-80" y="310"/>
                        </Array>
                    </mxGeometry>
                </mxCell>
                <object label="#Expression" hedietLinkedDataV1_path="../ast.ts" hedietLinkedDataV1_start_col_x-num="18" hedietLinkedDataV1_start_line_x-num="32" hedietLinkedDataV1_end_col_x-num="18" hedietLinkedDataV1_end_line_x-num="32" id="32">
                    <mxCell style="rounded=1;whiteSpace=wrap;html=1;" vertex="1" parent="1">
                        <mxGeometry x="10" y="280" width="120" height="60" as="geometry"/>
                    </mxCell>
                </object>
                <object label="#FunctionCall" hedietLinkedDataV1_path="../ast.ts" hedietLinkedDataV1_start_col_x-num="18" hedietLinkedDataV1_start_line_x-num="32" hedietLinkedDataV1_end_col_x-num="18" hedietLinkedDataV1_end_line_x-num="32" id="33">
                    <mxCell style="rounded=1;whiteSpace=wrap;html=1;" vertex="1" parent="1">
                        <mxGeometry x="10" y="400" width="120" height="60" as="geometry"/>
                    </mxCell>
                </object>
                <mxCell id="37" style="edgeStyle=none;html=1;entryX=0;entryY=0.5;entryDx=0;entryDy=0;exitX=0;exitY=0.5;exitDx=0;exitDy=0;" edge="1" parent="1" source="40" target="14">
                    <mxGeometry relative="1" as="geometry">
                        <mxPoint x="185.885" y="1856" as="sourcePoint"/>
                        <Array as="points">
                            <mxPoint x="80" y="1950"/>
                            <mxPoint x="80" y="1530"/>
                        </Array>
                    </mxGeometry>
                </mxCell>
                <mxCell id="40" value="parseFunctionCall" style="rounded=0;whiteSpace=wrap;html=1;" vertex="1" parent="1">
                    <mxGeometry x="182.5" y="1930" width="295" height="40" as="geometry"/>
                </mxCell>
                <mxCell id="42" style="edgeStyle=none;html=1;" edge="1" parent="1" source="41" target="40">
                    <mxGeometry relative="1" as="geometry"/>
                </mxCell>
                <mxCell id="41" value="parsePrimary" style="rounded=0;whiteSpace=wrap;html=1;" vertex="1" parent="1">
                    <mxGeometry x="180" y="1840" width="300" height="40" as="geometry"/>
                </mxCell>
                <object label="#Unary" hedietLinkedDataV1_path="../ast.ts" hedietLinkedDataV1_start_col_x-num="18" hedietLinkedDataV1_start_line_x-num="32" hedietLinkedDataV1_end_col_x-num="18" hedietLinkedDataV1_end_line_x-num="32" id="43">
                    <mxCell style="rounded=1;whiteSpace=wrap;html=1;" vertex="1" parent="1">
                        <mxGeometry x="-130" y="400" width="120" height="60" as="geometry"/>
                    </mxCell>
                </object>
            </root>
        </mxGraphModel>
    </diagram>
</mxfile>